<?xml version="1.0" standalone="no"?>
<!DOCTYPE svg PUBLIC "-//W3C//DTD SVG 20010904//EN"
 "http://www.w3.org/TR/2001/REC-SVG-20010904/DTD/svg10.dtd">
<svg version="1.0" xmlns="http://www.w3.org/2000/svg"
 width="462.000000pt" height="103.000000pt" viewBox="0 0 462.000000 103.000000"
 preserveAspectRatio="xMidYMid meet">

<g transform="translate(0.000000,103.000000) scale(0.100000,-0.100000)"
fill="#000000" stroke="none">
<path d="M595 720 c-11 -5 -35 -9 -52 -9 -64 -2 -163 -82 -205 -166 -39 -77
-28 -211 23 -293 33 -53 104 -108 164 -126 40 -12 142 -12 186 1 84 24 162
102 195 195 25 73 12 204 -24 240 -7 7 -12 17 -12 22 -1 38 -119 119 -185 128
-22 3 -47 8 -55 11 -8 3 -24 2 -35 -3z"/>
<path d="M1165 700 c-3 -5 -3 -14 0 -20 4 -7 541 -10 1580 -10 1340 0 1574 2
1578 14 3 8 3 17 0 20 -11 11 -3151 7 -3158 -4z"/>
</g>
</svg>
